{"cells":[{"cell_type":"markdown","source":["## Setup Colab"],"metadata":{"id":"DG5NPX-pVAQB"}},{"cell_type":"code","source":["from google.colab import drive \n","drive.mount('/content/gdrive')"],"metadata":{"colab":{"base_uri":"https://localhost:8080/"},"executionInfo":{"status":"ok","timestamp":1674657024763,"user_tz":180,"elapsed":22562,"user":{"displayName":"BENJAMÍN NICOLÁS ALVIAL","userId":"15655169187878286848"}},"outputId":"e842c710-0023-4d8e-b4fd-e12e49978fb9","id":"UrxMk8-uVAQB"},"execution_count":1,"outputs":[{"output_type":"stream","name":"stdout","text":["Mounted at /content/gdrive\n"]}]},{"cell_type":"code","source":["wdir = '/content/gdrive/Othercomputers/My MacBook Air/cell-jamming/experiment_a'"],"metadata":{"id":"zJSn3_UXVAQC","executionInfo":{"status":"ok","timestamp":1674657024764,"user_tz":180,"elapsed":10,"user":{"displayName":"BENJAMÍN NICOLÁS ALVIAL","userId":"15655169187878286848"}}},"execution_count":2,"outputs":[]},{"cell_type":"code","execution_count":3,"metadata":{"id":"DaJwgTXcVAQC","executionInfo":{"status":"ok","timestamp":1674657027307,"user_tz":180,"elapsed":2551,"user":{"displayName":"BENJAMÍN NICOLÁS ALVIAL","userId":"15655169187878286848"}}},"outputs":[],"source":["import matplotlib.pyplot as plt\n","import numpy as np\n","import os\n","import pandas as pd\n","np.set_printoptions(linewidth=np.inf)"]},{"cell_type":"code","source":["!apt install ffmpeg"],"metadata":{"id":"GCKCsxwXAS0d","colab":{"base_uri":"https://localhost:8080/"},"executionInfo":{"status":"ok","timestamp":1674657033853,"user_tz":180,"elapsed":6553,"user":{"displayName":"BENJAMÍN NICOLÁS ALVIAL","userId":"15655169187878286848"}},"outputId":"8920ec2c-983e-4bb8-82f6-e7b02154bc4b"},"execution_count":4,"outputs":[{"output_type":"stream","name":"stdout","text":["Reading package lists... Done\n","Building dependency tree       \n","Reading state information... Done\n","ffmpeg is already the newest version (7:4.2.7-0ubuntu0.1).\n","0 upgraded, 0 newly installed, 0 to remove and 23 not upgraded.\n"]}]},{"cell_type":"markdown","metadata":{"id":"7RMXlsShXevc"},"source":["## Video: grid velocity plot"]},{"cell_type":"code","source":["video_name = 'grid_velocity'\n","\n","data_folder_name = 'data_extracted'\n","videos_dir = 'videos/' + video_name\n","n_frames = 29"],"metadata":{"id":"4iWmLyXCABQZ","executionInfo":{"status":"ok","timestamp":1674657033853,"user_tz":180,"elapsed":7,"user":{"displayName":"BENJAMÍN NICOLÁS ALVIAL","userId":"15655169187878286848"}}},"execution_count":5,"outputs":[]},{"cell_type":"code","source":["df = pd.read_csv(os.path.join(wdir, data_folder_name, 'grid_data.csv'))"],"metadata":{"id":"qbw3HbjdVMmG","executionInfo":{"status":"ok","timestamp":1674657036063,"user_tz":180,"elapsed":2216,"user":{"displayName":"BENJAMÍN NICOLÁS ALVIAL","userId":"15655169187878286848"}}},"execution_count":6,"outputs":[]},{"cell_type":"code","execution_count":7,"metadata":{"id":"ohtMbR349ml_","executionInfo":{"status":"ok","timestamp":1674657048403,"user_tz":180,"elapsed":12348,"user":{"displayName":"BENJAMÍN NICOLÁS ALVIAL","userId":"15655169187878286848"}}},"outputs":[],"source":["for i in range(0, n_frames):\n","  number_str = str(i).zfill(3)\n","\n","  img_name =  'frame' + number_str + '.png'\n","\n","  df_filtered = df[df['t'] == i]\n","  df_filtered = df_filtered.reset_index(drop=True)\n","\n","  X = df_filtered['x'].to_numpy()\n","  Y = df_filtered['y'].to_numpy()\n","  VX = df_filtered['vx'].to_numpy()\n","  VY = df_filtered['vy'].to_numpy()\n","\n","  fig, ax = plt.subplots(1, 1, figsize=(6,6))\n","  fig.suptitle('Frame ' + number_str)\n","  ax.quiver(X, Y, VX, VY, edgecolors='k')\n","  plt.gca().invert_yaxis()\n","  fig.savefig(os.path.join(wdir, videos_dir, img_name))\n","  plt.close(fig)"]},{"cell_type":"code","source":["%cd {os.path.join(wdir, videos_dir)}\n","!ffmpeg -r 6 -i frame%03d.png -vcodec mpeg4 -y {video_name}.mp4"],"metadata":{"colab":{"base_uri":"https://localhost:8080/"},"id":"dkvISLqiBgAW","executionInfo":{"status":"ok","timestamp":1674657049948,"user_tz":180,"elapsed":1568,"user":{"displayName":"BENJAMÍN NICOLÁS ALVIAL","userId":"15655169187878286848"}},"outputId":"867c33a1-a5a4-4127-edb0-6bb12f79d78f"},"execution_count":8,"outputs":[{"output_type":"stream","name":"stdout","text":["/content/gdrive/Othercomputers/My MacBook Air/cell-jamming/experiment_a/videos/grid_velocity\n","ffmpeg version 4.2.7-0ubuntu0.1 Copyright (c) 2000-2022 the FFmpeg developers\n","  built with gcc 9 (Ubuntu 9.4.0-1ubuntu1~20.04.1)\n","  configuration: --prefix=/usr --extra-version=0ubuntu0.1 --toolchain=hardened --libdir=/usr/lib/x86_64-linux-gnu --incdir=/usr/include/x86_64-linux-gnu --arch=amd64 --enable-gpl --disable-stripping --enable-avresample --disable-filter=resample --enable-avisynth --enable-gnutls --enable-ladspa --enable-libaom --enable-libass --enable-libbluray --enable-libbs2b --enable-libcaca --enable-libcdio --enable-libcodec2 --enable-libflite --enable-libfontconfig --enable-libfreetype --enable-libfribidi --enable-libgme --enable-libgsm --enable-libjack --enable-libmp3lame --enable-libmysofa --enable-libopenjpeg --enable-libopenmpt --enable-libopus --enable-libpulse --enable-librsvg --enable-librubberband --enable-libshine --enable-libsnappy --enable-libsoxr --enable-libspeex --enable-libssh --enable-libtheora --enable-libtwolame --enable-libvidstab --enable-libvorbis --enable-libvpx --enable-libwavpack --enable-libwebp --enable-libx265 --enable-libxml2 --enable-libxvid --enable-libzmq --enable-libzvbi --enable-lv2 --enable-omx --enable-openal --enable-opencl --enable-opengl --enable-sdl2 --enable-libdc1394 --enable-libdrm --enable-libiec61883 --enable-nvenc --enable-chromaprint --enable-frei0r --enable-libx264 --enable-shared\n","  libavutil      56. 31.100 / 56. 31.100\n","  libavcodec     58. 54.100 / 58. 54.100\n","  libavformat    58. 29.100 / 58. 29.100\n","  libavdevice    58.  8.100 / 58.  8.100\n","  libavfilter     7. 57.100 /  7. 57.100\n","  libavresample   4.  0.  0 /  4.  0.  0\n","  libswscale      5.  5.100 /  5.  5.100\n","  libswresample   3.  5.100 /  3.  5.100\n","  libpostproc    55.  5.100 / 55.  5.100\n","Input #0, image2, from 'frame%03d.png':\n","  Duration: 00:00:01.16, start: 0.000000, bitrate: N/A\n","    Stream #0:0: Video: png, rgba(pc), 432x432 [SAR 2834:2834 DAR 1:1], 25 fps, 25 tbr, 25 tbn, 25 tbc\n","Stream mapping:\n","  Stream #0:0 -> #0:0 (png (native) -> mpeg4 (native))\n","Press [q] to stop, [?] for help\n","Output #0, mp4, to 'grid_velocity.mp4':\n","  Metadata:\n","    encoder         : Lavf58.29.100\n","    Stream #0:0: Video: mpeg4 (mp4v / 0x7634706D), yuv420p, 432x432 [SAR 1:1 DAR 1:1], q=2-31, 200 kb/s, 6 fps, 12288 tbn, 6 tbc\n","    Metadata:\n","      encoder         : Lavc58.54.100 mpeg4\n","    Side data:\n","      cpb: bitrate max/min/avg: 0/0/200000 buffer size: 0 vbv_delay: -1\n","frame=   29 fps=0.0 q=31.0 Lsize=     406kB time=00:00:04.66 bitrate= 712.4kbits/s speed=28.3x    \n","video:405kB audio:0kB subtitle:0kB other streams:0kB global headers:0kB muxing overhead: 0.241463%\n"]}]},{"cell_type":"markdown","metadata":{"id":"88FT_UvEyJBa"},"source":["## Video: grid speed plot"]},{"cell_type":"code","source":["video_name = 'grid_speed'\n","\n","data_folder_name = 'data_extracted'\n","videos_dir = 'videos/' + video_name\n","n_frames = 29"],"metadata":{"id":"wuunhcFgyJBb","executionInfo":{"status":"ok","timestamp":1674657049949,"user_tz":180,"elapsed":17,"user":{"displayName":"BENJAMÍN NICOLÁS ALVIAL","userId":"15655169187878286848"}}},"execution_count":9,"outputs":[]},{"cell_type":"code","source":["df = pd.read_csv(os.path.join(wdir, data_folder_name, 'grid_data.csv'))"],"metadata":{"id":"fL-axHnJyJBc","executionInfo":{"status":"ok","timestamp":1674657049950,"user_tz":180,"elapsed":17,"user":{"displayName":"BENJAMÍN NICOLÁS ALVIAL","userId":"15655169187878286848"}}},"execution_count":10,"outputs":[]},{"cell_type":"code","source":["def get_matrix(X,Y,U):\n","\n","  def find_xy_ind(xval, yval, xarray, yarray):    \n","    for index in range(0, len(xarray)):\n","      if abs(xarray[index] - xval) < 0.0001 and abs(yarray[index] - yval) < 0.0001:\n","        return index\n","\n","  X_unique=np.unique(X)\n","  Y_unique=np.unique(Y)\n","\n","  matriz_final = np.empty([X_unique.shape[0], Y_unique.shape[0]])\n","\n","  for i in range(X_unique.shape[0]):\n","    for j in range(Y_unique.shape[0]):\n","        xval = X_unique[i]\n","        yval = Y_unique[j]\n","        index = find_xy_ind(xval, yval, X, Y)\n","        matriz_final[i,j] = U[index]\n","  \n","  matriz_final = matriz_final.transpose()\n","  #matriz_final = np.flip(matriz_final, axis = 0)\n","\n","  return matriz_final"],"metadata":{"id":"EQweV6Xay7XR","executionInfo":{"status":"ok","timestamp":1674657049951,"user_tz":180,"elapsed":16,"user":{"displayName":"BENJAMÍN NICOLÁS ALVIAL","userId":"15655169187878286848"}}},"execution_count":11,"outputs":[]},{"cell_type":"code","source":["X = [-200,-200,-200,-200,-200, -150, -150, -150,-150, -150, -100, -100, -100, -100, -100]\n","Y = [-60, -120, 0, 30, -30, -60, -120, 0, 30, -30, -60, -120, 0, 30, -30]\n","Z = [0.2, 0.1, 0, -0.32, 0.4, -0.2, 0.5, -0.1, 0.3, 0.4, -0.7, 0.7, 0.6, -0.3, 0.9]\n","print(get_matrix(X,Y,Z))"],"metadata":{"colab":{"base_uri":"https://localhost:8080/"},"id":"tIMSYjxLCz-T","executionInfo":{"status":"ok","timestamp":1674657049952,"user_tz":180,"elapsed":17,"user":{"displayName":"BENJAMÍN NICOLÁS ALVIAL","userId":"15655169187878286848"}},"outputId":"8cc36cc2-fabf-4f69-e235-db353bd64d8b"},"execution_count":12,"outputs":[{"output_type":"stream","name":"stdout","text":["[[ 0.1   0.5   0.7 ]\n"," [ 0.2  -0.2  -0.7 ]\n"," [ 0.4   0.4   0.9 ]\n"," [ 0.   -0.1   0.6 ]\n"," [-0.32  0.3  -0.3 ]]\n"]}]},{"cell_type":"code","execution_count":13,"metadata":{"id":"s53Y0NPJyJBc","executionInfo":{"status":"ok","timestamp":1674657062204,"user_tz":180,"elapsed":12266,"user":{"displayName":"BENJAMÍN NICOLÁS ALVIAL","userId":"15655169187878286848"}}},"outputs":[],"source":["for i in range(0, n_frames):\n","  number_str = str(i).zfill(3)\n","\n","  img_name =  'frame' + number_str + '.png'\n","\n","  df_filtered = df[df['t'] == i]\n","  df_filtered = df_filtered.reset_index(drop=True)\n","\n","  X = df_filtered['x'].to_numpy()\n","  Y = df_filtered['y'].to_numpy()\n","  U = df_filtered['u'].to_numpy()\n","\n","  A = get_matrix(X,Y,U)\n","\n","  fig, ax = plt.subplots(1, 1, figsize=(6,6))\n","  fig.suptitle('Frame ' + number_str)\n","  x = ax.imshow(A, cmap='hot', interpolation='nearest', vmin = 0, vmax = 60, origin = 'upper')\n","  plt.colorbar(x)\n","  fig.savefig(os.path.join(wdir, videos_dir, img_name))\n","  plt.close(fig)"]},{"cell_type":"code","source":["%cd {os.path.join(wdir, videos_dir)}\n","!ffmpeg -r 6 -i frame%03d.png -vcodec mpeg4 -y {video_name}.mp4"],"metadata":{"colab":{"base_uri":"https://localhost:8080/"},"executionInfo":{"status":"ok","timestamp":1674657062508,"user_tz":180,"elapsed":359,"user":{"displayName":"BENJAMÍN NICOLÁS ALVIAL","userId":"15655169187878286848"}},"outputId":"124afa6f-8a30-4a64-bb2c-694298b2e417","id":"1PfNQNFUyJBc"},"execution_count":14,"outputs":[{"output_type":"stream","name":"stdout","text":["/content/gdrive/Othercomputers/My MacBook Air/cell-jamming/experiment_a/videos/grid_speed\n","ffmpeg version 4.2.7-0ubuntu0.1 Copyright (c) 2000-2022 the FFmpeg developers\n","  built with gcc 9 (Ubuntu 9.4.0-1ubuntu1~20.04.1)\n","  configuration: --prefix=/usr --extra-version=0ubuntu0.1 --toolchain=hardened --libdir=/usr/lib/x86_64-linux-gnu --incdir=/usr/include/x86_64-linux-gnu --arch=amd64 --enable-gpl --disable-stripping --enable-avresample --disable-filter=resample --enable-avisynth --enable-gnutls --enable-ladspa --enable-libaom --enable-libass --enable-libbluray --enable-libbs2b --enable-libcaca --enable-libcdio --enable-libcodec2 --enable-libflite --enable-libfontconfig --enable-libfreetype --enable-libfribidi --enable-libgme --enable-libgsm --enable-libjack --enable-libmp3lame --enable-libmysofa --enable-libopenjpeg --enable-libopenmpt --enable-libopus --enable-libpulse --enable-librsvg --enable-librubberband --enable-libshine --enable-libsnappy --enable-libsoxr --enable-libspeex --enable-libssh --enable-libtheora --enable-libtwolame --enable-libvidstab --enable-libvorbis --enable-libvpx --enable-libwavpack --enable-libwebp --enable-libx265 --enable-libxml2 --enable-libxvid --enable-libzmq --enable-libzvbi --enable-lv2 --enable-omx --enable-openal --enable-opencl --enable-opengl --enable-sdl2 --enable-libdc1394 --enable-libdrm --enable-libiec61883 --enable-nvenc --enable-chromaprint --enable-frei0r --enable-libx264 --enable-shared\n","  libavutil      56. 31.100 / 56. 31.100\n","  libavcodec     58. 54.100 / 58. 54.100\n","  libavformat    58. 29.100 / 58. 29.100\n","  libavdevice    58.  8.100 / 58.  8.100\n","  libavfilter     7. 57.100 /  7. 57.100\n","  libavresample   4.  0.  0 /  4.  0.  0\n","  libswscale      5.  5.100 /  5.  5.100\n","  libswresample   3.  5.100 /  3.  5.100\n","  libpostproc    55.  5.100 / 55.  5.100\n","Input #0, image2, from 'frame%03d.png':\n","  Duration: 00:00:01.16, start: 0.000000, bitrate: N/A\n","    Stream #0:0: Video: png, rgba(pc), 432x432 [SAR 2834:2834 DAR 1:1], 25 fps, 25 tbr, 25 tbn, 25 tbc\n","Stream mapping:\n","  Stream #0:0 -> #0:0 (png (native) -> mpeg4 (native))\n","Press [q] to stop, [?] for help\n","Output #0, mp4, to 'grid_speed.mp4':\n","  Metadata:\n","    encoder         : Lavf58.29.100\n","    Stream #0:0: Video: mpeg4 (mp4v / 0x7634706D), yuv420p, 432x432 [SAR 1:1 DAR 1:1], q=2-31, 200 kb/s, 6 fps, 12288 tbn, 6 tbc\n","    Metadata:\n","      encoder         : Lavc58.54.100 mpeg4\n","    Side data:\n","      cpb: bitrate max/min/avg: 0/0/200000 buffer size: 0 vbv_delay: -1\n","frame=   29 fps=0.0 q=12.5 Lsize=     249kB time=00:00:04.66 bitrate= 437.7kbits/s speed=45.3x    \n","video:248kB audio:0kB subtitle:0kB other streams:0kB global headers:0kB muxing overhead: 0.393606%\n"]}]},{"cell_type":"markdown","metadata":{"id":"qD4wTKYI3oPI"},"source":["## Video: grid packing fraction plot"]},{"cell_type":"code","source":["video_name = 'grid_packing'\n","\n","data_folder_name = 'data_extracted'\n","videos_dir = 'videos/' + video_name\n","n_frames = 29"],"metadata":{"id":"7OmNc5Ox3oPI","executionInfo":{"status":"ok","timestamp":1674657062513,"user_tz":180,"elapsed":25,"user":{"displayName":"BENJAMÍN NICOLÁS ALVIAL","userId":"15655169187878286848"}}},"execution_count":15,"outputs":[]},{"cell_type":"code","source":["df = pd.read_csv(os.path.join(wdir, data_folder_name, 'grid_data.csv'))"],"metadata":{"id":"obSf6Fn73oPJ","executionInfo":{"status":"ok","timestamp":1674657062821,"user_tz":180,"elapsed":333,"user":{"displayName":"BENJAMÍN NICOLÁS ALVIAL","userId":"15655169187878286848"}}},"execution_count":16,"outputs":[]},{"cell_type":"code","source":["def get_matrix(X,Y,U):\n","\n","  def find_xy_ind(xval, yval, xarray, yarray):    \n","    for index in range(0, len(xarray)):\n","      if abs(xarray[index] - xval) < 0.0001 and abs(yarray[index] - yval) < 0.0001:\n","        return index\n","\n","  X_unique=np.unique(X)\n","  Y_unique=np.unique(Y)\n","\n","  matriz_final = np.empty([X_unique.shape[0], Y_unique.shape[0]])\n","\n","  for i in range(X_unique.shape[0]):\n","    for j in range(Y_unique.shape[0]):\n","        xval = X_unique[i]\n","        yval = Y_unique[j]\n","        index = find_xy_ind(xval, yval, X, Y)\n","        matriz_final[i,j] = U[index]\n","  \n","  matriz_final = matriz_final.transpose()\n","  #matriz_final = np.flip(matriz_final, axis = 0)\n","  return matriz_final"],"metadata":{"id":"_Yz1QWxK3oPJ","executionInfo":{"status":"ok","timestamp":1674657062822,"user_tz":180,"elapsed":6,"user":{"displayName":"BENJAMÍN NICOLÁS ALVIAL","userId":"15655169187878286848"}}},"execution_count":17,"outputs":[]},{"cell_type":"code","execution_count":18,"metadata":{"id":"-dds49LJ3oPJ","executionInfo":{"status":"ok","timestamp":1674657075290,"user_tz":180,"elapsed":12473,"user":{"displayName":"BENJAMÍN NICOLÁS ALVIAL","userId":"15655169187878286848"}}},"outputs":[],"source":["for i in range(0, n_frames):\n","  number_str = str(i).zfill(3)\n","\n","  img_name =  'frame' + number_str + '.png'\n","\n","  df_filtered = df[df['t'] == i]\n","  df_filtered = df_filtered.reset_index(drop=True)\n","\n","  X = df_filtered['x'].to_numpy()\n","  Y = df_filtered['y'].to_numpy()\n","  Phi = df_filtered['phi'].to_numpy()\n","\n","  A = get_matrix(X,Y,Phi)\n","\n","  fig, ax = plt.subplots(1, 1, figsize=(6,6))\n","  fig.suptitle('Frame ' + number_str)\n","  x = ax.imshow(A, cmap='viridis', interpolation='nearest', vmin = 0.2, vmax = 0.7, origin = 'upper')\n","  plt.colorbar(x)\n","  fig.savefig(os.path.join(wdir, videos_dir, img_name))\n","  plt.close(fig)"]},{"cell_type":"code","source":["%cd {os.path.join(wdir, videos_dir)}\n","!ffmpeg -r 6 -i frame%03d.png -vcodec mpeg4 -y {video_name}.mp4"],"metadata":{"colab":{"base_uri":"https://localhost:8080/"},"executionInfo":{"status":"ok","timestamp":1674657075629,"user_tz":180,"elapsed":361,"user":{"displayName":"BENJAMÍN NICOLÁS ALVIAL","userId":"15655169187878286848"}},"outputId":"fdc873d1-aa31-4b39-957e-dcbb7c49edc7","id":"DRnBXylU3oPJ"},"execution_count":19,"outputs":[{"output_type":"stream","name":"stdout","text":["/content/gdrive/Othercomputers/My MacBook Air/cell-jamming/experiment_a/videos/grid_packing\n","ffmpeg version 4.2.7-0ubuntu0.1 Copyright (c) 2000-2022 the FFmpeg developers\n","  built with gcc 9 (Ubuntu 9.4.0-1ubuntu1~20.04.1)\n","  configuration: --prefix=/usr --extra-version=0ubuntu0.1 --toolchain=hardened --libdir=/usr/lib/x86_64-linux-gnu --incdir=/usr/include/x86_64-linux-gnu --arch=amd64 --enable-gpl --disable-stripping --enable-avresample --disable-filter=resample --enable-avisynth --enable-gnutls --enable-ladspa --enable-libaom --enable-libass --enable-libbluray --enable-libbs2b --enable-libcaca --enable-libcdio --enable-libcodec2 --enable-libflite --enable-libfontconfig --enable-libfreetype --enable-libfribidi --enable-libgme --enable-libgsm --enable-libjack --enable-libmp3lame --enable-libmysofa --enable-libopenjpeg --enable-libopenmpt --enable-libopus --enable-libpulse --enable-librsvg --enable-librubberband --enable-libshine --enable-libsnappy --enable-libsoxr --enable-libspeex --enable-libssh --enable-libtheora --enable-libtwolame --enable-libvidstab --enable-libvorbis --enable-libvpx --enable-libwavpack --enable-libwebp --enable-libx265 --enable-libxml2 --enable-libxvid --enable-libzmq --enable-libzvbi --enable-lv2 --enable-omx --enable-openal --enable-opencl --enable-opengl --enable-sdl2 --enable-libdc1394 --enable-libdrm --enable-libiec61883 --enable-nvenc --enable-chromaprint --enable-frei0r --enable-libx264 --enable-shared\n","  libavutil      56. 31.100 / 56. 31.100\n","  libavcodec     58. 54.100 / 58. 54.100\n","  libavformat    58. 29.100 / 58. 29.100\n","  libavdevice    58.  8.100 / 58.  8.100\n","  libavfilter     7. 57.100 /  7. 57.100\n","  libavresample   4.  0.  0 /  4.  0.  0\n","  libswscale      5.  5.100 /  5.  5.100\n","  libswresample   3.  5.100 /  3.  5.100\n","  libpostproc    55.  5.100 / 55.  5.100\n","Input #0, image2, from 'frame%03d.png':\n","  Duration: 00:00:01.16, start: 0.000000, bitrate: N/A\n","    Stream #0:0: Video: png, rgba(pc), 432x432 [SAR 2834:2834 DAR 1:1], 25 fps, 25 tbr, 25 tbn, 25 tbc\n","Stream mapping:\n","  Stream #0:0 -> #0:0 (png (native) -> mpeg4 (native))\n","Press [q] to stop, [?] for help\n","Output #0, mp4, to 'grid_packing.mp4':\n","  Metadata:\n","    encoder         : Lavf58.29.100\n","    Stream #0:0: Video: mpeg4 (mp4v / 0x7634706D), yuv420p, 432x432 [SAR 1:1 DAR 1:1], q=2-31, 200 kb/s, 6 fps, 12288 tbn, 6 tbc\n","    Metadata:\n","      encoder         : Lavc58.54.100 mpeg4\n","    Side data:\n","      cpb: bitrate max/min/avg: 0/0/200000 buffer size: 0 vbv_delay: -1\n","frame=   29 fps=0.0 q=3.8 Lsize=     218kB time=00:00:04.66 bitrate= 383.1kbits/s speed=42.8x    \n","video:217kB audio:0kB subtitle:0kB other streams:0kB global headers:0kB muxing overhead: 0.449902%\n"]}]},{"cell_type":"markdown","source":["## Video: packing fraction and number density scatter plot"],"metadata":{"id":"Y7_OM7jli2dd"}},{"cell_type":"code","source":["video_name = 'packing_number_scatter'\n","\n","data_folder_name = 'data_extracted'\n","videos_dir = 'videos/' + video_name\n","n_frames = 29"],"metadata":{"id":"rCWiXTiri8e-","executionInfo":{"status":"ok","timestamp":1674657075629,"user_tz":180,"elapsed":6,"user":{"displayName":"BENJAMÍN NICOLÁS ALVIAL","userId":"15655169187878286848"}}},"execution_count":20,"outputs":[]},{"cell_type":"code","source":["df = pd.read_csv(os.path.join(wdir, data_folder_name, 'grid_data.csv'))"],"metadata":{"id":"vzbI-yyQjxNB","executionInfo":{"status":"ok","timestamp":1674657075886,"user_tz":180,"elapsed":263,"user":{"displayName":"BENJAMÍN NICOLÁS ALVIAL","userId":"15655169187878286848"}}},"execution_count":21,"outputs":[]},{"cell_type":"code","source":["for i in range(0, n_frames):\n","  number_str = str(i).zfill(3)\n","\n","  img_name =  'frame' + number_str + '.png'\n","\n","  df_filtered = df[df['t'] == i]\n","  df_filtered = df_filtered.reset_index(drop=True)\n","\n","  Phi = df_filtered['phi'].to_numpy()\n","  N = df_filtered['N'].to_numpy()\n","\n","  fig, ax = plt.subplots(1, 1, figsize=(6,6))\n","  fig.suptitle('Frame ' + number_str)\n","  ax.scatter(Phi, N, 2, 'green')\n","  ax.set_xlabel('Packing fraction')\n","  ax.set_ylabel('Number density')\n","  ax.set_xlim((0.2,0.75))\n","  ax.set_ylim((5,25))\n","  fig.savefig(os.path.join(wdir, videos_dir, img_name))\n","  plt.close(fig)"],"metadata":{"id":"CUicAXZokEXD","executionInfo":{"status":"ok","timestamp":1674657086226,"user_tz":180,"elapsed":10343,"user":{"displayName":"BENJAMÍN NICOLÁS ALVIAL","userId":"15655169187878286848"}}},"execution_count":22,"outputs":[]},{"cell_type":"code","source":["%cd {os.path.join(wdir, videos_dir)}\n","!ffmpeg -r 6 -i frame%03d.png -vcodec mpeg4 -y {video_name}.mp4"],"metadata":{"id":"TeQQGNqmku-S","executionInfo":{"status":"ok","timestamp":1674657086818,"user_tz":180,"elapsed":612,"user":{"displayName":"BENJAMÍN NICOLÁS ALVIAL","userId":"15655169187878286848"}},"outputId":"df39bbac-9ff0-4e58-de35-d58f2d4f116b","colab":{"base_uri":"https://localhost:8080/"}},"execution_count":23,"outputs":[{"output_type":"stream","name":"stdout","text":["/content/gdrive/Othercomputers/My MacBook Air/cell-jamming/experiment_a/videos/packing_number_scatter\n","ffmpeg version 4.2.7-0ubuntu0.1 Copyright (c) 2000-2022 the FFmpeg developers\n","  built with gcc 9 (Ubuntu 9.4.0-1ubuntu1~20.04.1)\n","  configuration: --prefix=/usr --extra-version=0ubuntu0.1 --toolchain=hardened --libdir=/usr/lib/x86_64-linux-gnu --incdir=/usr/include/x86_64-linux-gnu --arch=amd64 --enable-gpl --disable-stripping --enable-avresample --disable-filter=resample --enable-avisynth --enable-gnutls --enable-ladspa --enable-libaom --enable-libass --enable-libbluray --enable-libbs2b --enable-libcaca --enable-libcdio --enable-libcodec2 --enable-libflite --enable-libfontconfig --enable-libfreetype --enable-libfribidi --enable-libgme --enable-libgsm --enable-libjack --enable-libmp3lame --enable-libmysofa --enable-libopenjpeg --enable-libopenmpt --enable-libopus --enable-libpulse --enable-librsvg --enable-librubberband --enable-libshine --enable-libsnappy --enable-libsoxr --enable-libspeex --enable-libssh --enable-libtheora --enable-libtwolame --enable-libvidstab --enable-libvorbis --enable-libvpx --enable-libwavpack --enable-libwebp --enable-libx265 --enable-libxml2 --enable-libxvid --enable-libzmq --enable-libzvbi --enable-lv2 --enable-omx --enable-openal --enable-opencl --enable-opengl --enable-sdl2 --enable-libdc1394 --enable-libdrm --enable-libiec61883 --enable-nvenc --enable-chromaprint --enable-frei0r --enable-libx264 --enable-shared\n","  libavutil      56. 31.100 / 56. 31.100\n","  libavcodec     58. 54.100 / 58. 54.100\n","  libavformat    58. 29.100 / 58. 29.100\n","  libavdevice    58.  8.100 / 58.  8.100\n","  libavfilter     7. 57.100 /  7. 57.100\n","  libavresample   4.  0.  0 /  4.  0.  0\n","  libswscale      5.  5.100 /  5.  5.100\n","  libswresample   3.  5.100 /  3.  5.100\n","  libpostproc    55.  5.100 / 55.  5.100\n","Input #0, image2, from 'frame%03d.png':\n","  Duration: 00:00:01.16, start: 0.000000, bitrate: N/A\n","    Stream #0:0: Video: png, rgba(pc), 432x432 [SAR 2834:2834 DAR 1:1], 25 fps, 25 tbr, 25 tbn, 25 tbc\n","Stream mapping:\n","  Stream #0:0 -> #0:0 (png (native) -> mpeg4 (native))\n","Press [q] to stop, [?] for help\n","Output #0, mp4, to 'packing_number_scatter.mp4':\n","  Metadata:\n","    encoder         : Lavf58.29.100\n","    Stream #0:0: Video: mpeg4 (mp4v / 0x7634706D), yuv420p, 432x432 [SAR 1:1 DAR 1:1], q=2-31, 200 kb/s, 6 fps, 12288 tbn, 6 tbc\n","    Metadata:\n","      encoder         : Lavc58.54.100 mpeg4\n","    Side data:\n","      cpb: bitrate max/min/avg: 0/0/200000 buffer size: 0 vbv_delay: -1\n","frame=   29 fps=0.0 q=5.5 Lsize=     224kB time=00:00:04.66 bitrate= 393.0kbits/s speed=45.6x    \n","video:223kB audio:0kB subtitle:0kB other streams:0kB global headers:0kB muxing overhead: 0.438548%\n"]}]},{"cell_type":"markdown","metadata":{"id":"E-9roskvkLtB"},"source":["## Video: packing fraction and speed scatter plot"]},{"cell_type":"code","source":["video_name = 'packing_speed_scatter'\n","\n","data_folder_name = 'data_extracted'\n","videos_dir = 'videos/' + video_name\n","n_frames = 29"],"metadata":{"id":"sY_qNleLkLtC","executionInfo":{"status":"ok","timestamp":1674657086819,"user_tz":180,"elapsed":9,"user":{"displayName":"BENJAMÍN NICOLÁS ALVIAL","userId":"15655169187878286848"}}},"execution_count":24,"outputs":[]},{"cell_type":"code","source":["df = pd.read_csv(os.path.join(wdir, data_folder_name, 'grid_data.csv'))"],"metadata":{"id":"G_vM9w7LkLtC","executionInfo":{"status":"ok","timestamp":1674657086820,"user_tz":180,"elapsed":9,"user":{"displayName":"BENJAMÍN NICOLÁS ALVIAL","userId":"15655169187878286848"}}},"execution_count":25,"outputs":[]},{"cell_type":"code","source":["for i in range(0, n_frames):\n","  number_str = str(i).zfill(3)\n","\n","  img_name =  'frame' + number_str + '.png'\n","\n","  df_filtered = df[df['t'] == i]\n","  df_filtered = df_filtered.reset_index(drop=True)\n","\n","  Phi = df_filtered['phi'].to_numpy()\n","  U = df_filtered['u'].to_numpy()\n","  Phi_inv = 1/Phi\n","\n","  fig, ax = plt.subplots(1, 1, figsize=(6,6))\n","  fig.suptitle('Frame ' + number_str)\n","  ax.scatter(Phi_inv, U, 2, 'green')\n","  ax.set_xlabel('Inverse of packing fraction')\n","  ax.set_ylabel(r'Speed ($\\mu$m/h)')\n","  ax.set_xlim((1.4,5))\n","  ax.set_ylim((4,65))\n","  fig.savefig(os.path.join(wdir, videos_dir, img_name))\n","  plt.close(fig)"],"metadata":{"id":"PCY61csKk4pt","executionInfo":{"status":"ok","timestamp":1674657097426,"user_tz":180,"elapsed":10614,"user":{"displayName":"BENJAMÍN NICOLÁS ALVIAL","userId":"15655169187878286848"}}},"execution_count":26,"outputs":[]},{"cell_type":"code","source":["%cd {os.path.join(wdir, videos_dir)}\n","!ffmpeg -r 6 -i frame%03d.png -vcodec mpeg4 -y {video_name}.mp4"],"metadata":{"colab":{"base_uri":"https://localhost:8080/"},"executionInfo":{"status":"ok","timestamp":1674657097428,"user_tz":180,"elapsed":175,"user":{"displayName":"BENJAMÍN NICOLÁS ALVIAL","userId":"15655169187878286848"}},"outputId":"c4bf67c7-7165-48e5-b145-6cc50c2da7e2","id":"3YLVUhJkkLtD"},"execution_count":27,"outputs":[{"output_type":"stream","name":"stdout","text":["/content/gdrive/Othercomputers/My MacBook Air/cell-jamming/experiment_a/videos/packing_speed_scatter\n","ffmpeg version 4.2.7-0ubuntu0.1 Copyright (c) 2000-2022 the FFmpeg developers\n","  built with gcc 9 (Ubuntu 9.4.0-1ubuntu1~20.04.1)\n","  configuration: --prefix=/usr --extra-version=0ubuntu0.1 --toolchain=hardened --libdir=/usr/lib/x86_64-linux-gnu --incdir=/usr/include/x86_64-linux-gnu --arch=amd64 --enable-gpl --disable-stripping --enable-avresample --disable-filter=resample --enable-avisynth --enable-gnutls --enable-ladspa --enable-libaom --enable-libass --enable-libbluray --enable-libbs2b --enable-libcaca --enable-libcdio --enable-libcodec2 --enable-libflite --enable-libfontconfig --enable-libfreetype --enable-libfribidi --enable-libgme --enable-libgsm --enable-libjack --enable-libmp3lame --enable-libmysofa --enable-libopenjpeg --enable-libopenmpt --enable-libopus --enable-libpulse --enable-librsvg --enable-librubberband --enable-libshine --enable-libsnappy --enable-libsoxr --enable-libspeex --enable-libssh --enable-libtheora --enable-libtwolame --enable-libvidstab --enable-libvorbis --enable-libvpx --enable-libwavpack --enable-libwebp --enable-libx265 --enable-libxml2 --enable-libxvid --enable-libzmq --enable-libzvbi --enable-lv2 --enable-omx --enable-openal --enable-opencl --enable-opengl --enable-sdl2 --enable-libdc1394 --enable-libdrm --enable-libiec61883 --enable-nvenc --enable-chromaprint --enable-frei0r --enable-libx264 --enable-shared\n","  libavutil      56. 31.100 / 56. 31.100\n","  libavcodec     58. 54.100 / 58. 54.100\n","  libavformat    58. 29.100 / 58. 29.100\n","  libavdevice    58.  8.100 / 58.  8.100\n","  libavfilter     7. 57.100 /  7. 57.100\n","  libavresample   4.  0.  0 /  4.  0.  0\n","  libswscale      5.  5.100 /  5.  5.100\n","  libswresample   3.  5.100 /  3.  5.100\n","  libpostproc    55.  5.100 / 55.  5.100\n","Input #0, image2, from 'frame%03d.png':\n","  Duration: 00:00:01.16, start: 0.000000, bitrate: N/A\n","    Stream #0:0: Video: png, rgba(pc), 432x432 [SAR 2834:2834 DAR 1:1], 25 fps, 25 tbr, 25 tbn, 25 tbc\n","Stream mapping:\n","  Stream #0:0 -> #0:0 (png (native) -> mpeg4 (native))\n","Press [q] to stop, [?] for help\n","Output #0, mp4, to 'packing_speed_scatter.mp4':\n","  Metadata:\n","    encoder         : Lavf58.29.100\n","    Stream #0:0: Video: mpeg4 (mp4v / 0x7634706D), yuv420p, 432x432 [SAR 1:1 DAR 1:1], q=2-31, 200 kb/s, 6 fps, 12288 tbn, 6 tbc\n","    Metadata:\n","      encoder         : Lavc58.54.100 mpeg4\n","    Side data:\n","      cpb: bitrate max/min/avg: 0/0/200000 buffer size: 0 vbv_delay: -1\n","frame=   29 fps=0.0 q=11.2 Lsize=     242kB time=00:00:04.66 bitrate= 424.9kbits/s speed=47.7x    \n","video:241kB audio:0kB subtitle:0kB other streams:0kB global headers:0kB muxing overhead: 0.405537%\n"]}]}],"metadata":{"colab":{"collapsed_sections":["DG5NPX-pVAQB","7RMXlsShXevc","88FT_UvEyJBa","qD4wTKYI3oPI","Y7_OM7jli2dd","E-9roskvkLtB"],"provenance":[]},"kernelspec":{"display_name":"Python 3","language":"python","name":"python3"},"language_info":{"codemirror_mode":{"name":"ipython","version":3},"file_extension":".py","mimetype":"text/x-python","name":"python","nbconvert_exporter":"python","pygments_lexer":"ipython3","version":"3.8.3"}},"nbformat":4,"nbformat_minor":0}